<?xml version="1.0" encoding="utf-8"?>
<!-- Generator: Adobe Illustrator 16.0.0, SVG Export Plug-In . SVG Version: 6.00 Build 0)  -->
<!DOCTYPE svg PUBLIC "-//W3C//DTD SVG 1.1//EN" "http://www.w3.org/Graphics/SVG/1.1/DTD/svg11.dtd">
<svg version="1.1" id="Layer_1" xmlns="http://www.w3.org/2000/svg" xmlns:xlink="http://www.w3.org/1999/xlink" x="0px" y="0px"
	 width="500px" height="500px" viewBox="0 0 500 500" enable-background="new 0 0 500 500" xml:space="preserve">
<path fill="#1565C0" d="M448.914,425.419c0,13.482-10.936,24.42-24.42,24.42H74.6c-13.488,0-24.422-10.938-24.422-24.42v-349.9
	c0-13.485,10.934-24.418,24.422-24.418h349.895c13.484,0,24.42,10.933,24.42,24.418V425.419z"/>
<g>
	<path fill="#1565C0" d="M266.208,490.8c0,1.676-1.397,3.034-3.115,3.034h-27.094c-1.719,0-3.115-1.358-3.115-3.034v-26.958
		c0-1.677,1.396-3.032,3.115-3.032h27.094c1.718,0,3.115,1.355,3.115,3.032V490.8z"/>
	<path fill="#1565C0" d="M211.552,490.8c0,1.676-1.394,3.034-3.113,3.034h-27.096c-1.719,0-3.113-1.358-3.113-3.034v-26.958
		c0-1.677,1.394-3.032,3.113-3.032h27.096c1.719,0,3.113,1.355,3.113,3.032V490.8z"/>
	<path fill="#1565C0" d="M321.902,490.8c0,1.676-1.396,3.034-3.114,3.034h-27.093c-1.721,0-3.112-1.358-3.112-3.034v-26.958
		c0-1.677,1.392-3.032,3.112-3.032h27.093c1.719,0,3.114,1.355,3.114,3.032V490.8z"/>
	<path fill="#1565C0" d="M377.597,490.8c0,1.676-1.392,3.034-3.114,3.034h-27.092c-1.722,0-3.113-1.358-3.113-3.034v-26.958
		c0-1.677,1.392-3.032,3.113-3.032h27.092c1.723,0,3.114,1.355,3.114,3.032V490.8z"/>
	<path fill="#1565C0" d="M155.858,490.8c0,1.676-1.397,3.034-3.114,3.034H125.65c-1.719,0-3.114-1.358-3.114-3.034v-26.958
		c0-1.677,1.395-3.032,3.114-3.032h27.095c1.717,0,3.114,1.355,3.114,3.032V490.8z"/>
	<path fill="#1565C0" d="M100.161,490.8c0,1.676-1.395,3.034-3.114,3.034H69.955c-1.722,0-3.114-1.358-3.114-3.034v-26.958
		c0-1.677,1.392-3.032,3.114-3.032h27.092c1.719,0,3.114,1.355,3.114,3.032V490.8z"/>
	<path fill="#1565C0" d="M433.294,490.8c0,1.676-1.394,3.034-3.113,3.034h-27.092c-1.724,0-3.115-1.358-3.115-3.034v-26.958
		c0-1.677,1.392-3.032,3.115-3.032h27.092c1.72,0,3.113,1.355,3.113,3.032V490.8z"/>
</g>
<g>
	<path fill="#1565C0" d="M265.686,36.991c0,1.676-1.395,3.033-3.114,3.033h-27.096c-1.72,0-3.113-1.356-3.113-3.033V10.036
		c0-1.679,1.393-3.036,3.113-3.036h27.096c1.72,0,3.114,1.357,3.114,3.036V36.991z"/>
	<path fill="#1565C0" d="M211.031,36.991c0,1.676-1.394,3.033-3.113,3.033h-27.092c-1.723,0-3.115-1.356-3.115-3.033V10.036
		c0-1.679,1.392-3.036,3.115-3.036h27.092c1.719,0,3.113,1.357,3.113,3.036V36.991z"/>
	<path fill="#1565C0" d="M321.381,36.991c0,1.676-1.396,3.033-3.115,3.033h-27.092c-1.72,0-3.114-1.356-3.114-3.033V10.036
		c0-1.679,1.395-3.036,3.114-3.036h27.092c1.72,0,3.115,1.357,3.115,3.036V36.991z"/>
	<path fill="#1565C0" d="M377.075,36.991c0,1.676-1.394,3.033-3.114,3.033h-27.093c-1.719,0-3.114-1.356-3.114-3.033V10.036
		c0-1.679,1.396-3.036,3.114-3.036h27.093c1.721,0,3.114,1.357,3.114,3.036V36.991z"/>
	<path fill="#1565C0" d="M155.337,36.991c0,1.676-1.398,3.033-3.115,3.033h-27.091c-1.723,0-3.115-1.356-3.115-3.033V10.036
		c0-1.679,1.392-3.036,3.115-3.036h27.091c1.717,0,3.115,1.357,3.115,3.036V36.991z"/>
	<path fill="#1565C0" d="M99.639,36.991c0,1.676-1.395,3.033-3.114,3.033H69.433c-1.722,0-3.114-1.356-3.114-3.033V10.036
		C66.319,8.357,67.71,7,69.433,7h27.092c1.719,0,3.114,1.357,3.114,3.036V36.991z"/>
	<path fill="#1565C0" d="M432.772,36.991c0,1.676-1.396,3.033-3.115,3.033h-27.09c-1.724,0-3.115-1.356-3.115-3.033V10.036
		c0-1.679,1.392-3.036,3.115-3.036h27.09c1.72,0,3.115,1.357,3.115,3.036V36.991z"/>
</g>
<g>
	<path fill="#1565C0" d="M491.105,234.331c1.68,0,3.035,1.392,3.035,3.115v27.092c0,1.72-1.355,3.113-3.035,3.113H464.15
		c-1.676,0-3.034-1.394-3.034-3.113v-27.092c0-1.723,1.358-3.115,3.034-3.115H491.105z"/>
	<path fill="#1565C0" d="M491.105,288.981c1.68,0,3.035,1.396,3.035,3.115v27.092c0,1.72-1.355,3.113-3.035,3.113H464.15
		c-1.676,0-3.034-1.394-3.034-3.113v-27.092c0-1.72,1.358-3.115,3.034-3.115H491.105z"/>
	<path fill="#1565C0" d="M491.105,178.634c1.68,0,3.035,1.392,3.035,3.113v27.092c0,1.723-1.355,3.115-3.035,3.115H464.15
		c-1.676,0-3.034-1.392-3.034-3.115v-27.092c0-1.721,1.358-3.113,3.034-3.113H491.105z"/>
	<path fill="#1565C0" d="M491.105,122.939c1.68,0,3.035,1.392,3.035,3.114v27.089c0,1.722-1.355,3.114-3.035,3.114H464.15
		c-1.676,0-3.034-1.392-3.034-3.114v-27.089c0-1.722,1.358-3.114,3.034-3.114H491.105z"/>
	<path fill="#1565C0" d="M491.105,344.677c1.68,0,3.035,1.396,3.035,3.114v27.093c0,1.721-1.355,3.112-3.035,3.112H464.15
		c-1.676,0-3.034-1.392-3.034-3.112v-27.093c0-1.719,1.358-3.114,3.034-3.114H491.105z"/>
	<path fill="#1565C0" d="M491.105,400.373c1.68,0,3.035,1.394,3.035,3.115v27.092c0,1.723-1.355,3.115-3.035,3.115H464.15
		c-1.676,0-3.034-1.393-3.034-3.115v-27.092c0-1.722,1.358-3.115,3.034-3.115H491.105z"/>
	<path fill="#1565C0" d="M491.105,67.241c1.68,0,3.035,1.395,3.035,3.114v27.092c0,1.722-1.355,3.114-3.035,3.114H464.15
		c-1.676,0-3.034-1.392-3.034-3.114V70.355c0-1.719,1.358-3.114,3.034-3.114H491.105z"/>
</g>
<g>
	<path fill="#1565C0" d="M36.988,234.85c1.682,0,3.039,1.394,3.039,3.115v27.094c0,1.72-1.357,3.115-3.039,3.115H10.036
		c-1.676,0-3.036-1.396-3.036-3.115v-27.094c0-1.721,1.359-3.115,3.036-3.115H36.988z"/>
	<path fill="#1565C0" d="M36.988,289.504c1.682,0,3.039,1.395,3.039,3.114v27.092c0,1.72-1.357,3.113-3.039,3.113H10.036
		C8.359,322.823,7,321.43,7,319.71v-27.092c0-1.72,1.359-3.114,3.036-3.114H36.988z"/>
	<path fill="#1565C0" d="M36.988,179.155c1.682,0,3.039,1.392,3.039,3.115v27.09c0,1.723-1.357,3.115-3.039,3.115H10.036
		c-1.676,0-3.036-1.392-3.036-3.115v-27.09c0-1.723,1.359-3.115,3.036-3.115H36.988z"/>
	<path fill="#1565C0" d="M36.988,123.46c1.682,0,3.039,1.392,3.039,3.114v27.089c0,1.722-1.357,3.114-3.039,3.114H10.036
		c-1.676,0-3.036-1.392-3.036-3.114v-27.089c0-1.722,1.359-3.114,3.036-3.114H36.988z"/>
	<path fill="#1565C0" d="M36.988,345.198c1.682,0,3.039,1.396,3.039,3.114v27.093c0,1.721-1.357,3.112-3.039,3.112H10.036
		c-1.676,0-3.036-1.392-3.036-3.112v-27.093c0-1.719,1.359-3.114,3.036-3.114H36.988z"/>
	<path fill="#1565C0" d="M36.988,400.896c1.682,0,3.039,1.392,3.039,3.113v27.092c0,1.724-1.357,3.115-3.039,3.115H10.036
		c-1.676,0-3.036-1.392-3.036-3.115V404.01c0-1.722,1.359-3.113,3.036-3.113H36.988z"/>
	<path fill="#1565C0" d="M36.988,67.763c1.682,0,3.039,1.395,3.039,3.114v27.092c0,1.722-1.357,3.114-3.039,3.114H10.036
		C8.359,101.083,7,99.691,7,97.969V70.877c0-1.719,1.359-3.114,3.036-3.114H36.988z"/>
</g>
<path fill="#FFFFFF" d="M428.07,404.434c0,13.539-10.979,24.512-24.519,24.512H97.592c-13.546,0-24.523-10.973-24.523-24.512V98.474
	c0-13.535,10.978-24.508,24.523-24.508h154.279L428.07,251.457V404.434z"/>
<g>
	<path fill="#1565C0" d="M105.557,149.5h48.237v156.553h-48.237V149.5z"/>
	<path fill="#1565C0" d="M215.192,189.627h-43.857V149.5h95.997l39.948,40.127H263.43v116.426h-48.237V189.627z"/>
</g>
<g>
	<path fill="#1565C0" d="M116.616,380.551c0,5.029,4.453,7.174,8.988,7.174c3.298,0,7.668-1.319,7.668-5.442
		c0-3.546-4.947-4.865-13.276-6.597c-6.844-1.567-13.523-3.793-13.523-11.38c0-10.884,9.4-13.688,18.553-13.688
		c9.235,0,17.894,3.133,18.8,13.605h-11.132c-0.33-4.535-3.793-5.772-7.999-5.772c-2.639,0-6.514,0.412-6.514,3.958
		c0,4.206,6.679,4.783,13.276,6.35c6.844,1.566,13.523,4.04,13.523,11.956c0,11.215-9.813,14.843-19.46,14.843
		c-9.895,0-19.625-3.711-20.038-15.007H116.616z"/>
	<path fill="#1565C0" d="M173.345,350.618c13.44,0,22.099,8.905,22.099,22.511c0,13.523-8.658,22.429-22.099,22.429
		c-13.358,0-22.017-8.905-22.017-22.429C151.328,359.523,159.986,350.618,173.345,350.618z M173.345,386.734
		c7.999,0,10.39-6.762,10.39-13.605s-2.391-13.688-10.39-13.688c-7.916,0-10.308,6.844-10.308,13.688
		S165.429,386.734,173.345,386.734z"/>
	<path fill="#1565C0" d="M232.876,366.779c-0.742-4.864-3.628-7.338-8.658-7.338c-7.503,0-9.977,7.586-9.977,13.853
		c0,6.185,2.391,13.44,9.73,13.44c5.524,0,8.576-3.381,9.318-8.658h11.297c-1.567,11.297-9.235,17.481-20.532,17.481
		c-12.864,0-21.522-9.07-21.522-21.852c0-13.275,7.916-23.088,21.769-23.088c10.06,0,19.378,5.277,20.038,16.161H232.876z"/>
	<path fill="#1565C0" d="M264.043,345.176h-11.709v-9.647h11.709V345.176z M252.334,351.772h11.709v42.631h-11.709V351.772z"/>
	<path fill="#1565C0" d="M283.749,375.933c0.33,7.504,3.875,10.802,10.472,10.802c4.7,0,8.493-2.886,9.235-5.524h10.308
		c-3.298,10.143-10.308,14.348-19.955,14.348c-13.44,0-21.769-9.235-21.769-22.429c0-12.781,8.823-22.511,21.769-22.511
		c14.513,0,21.604,12.203,20.697,25.314H283.749z M302.797,368.512c-1.072-5.938-3.628-9.07-9.318-9.07
		c-7.586,0-9.482,5.771-9.729,9.07H302.797z"/>
	<path fill="#1565C0" d="M337.096,351.772h8.576v7.833h-8.576v21.109c0,3.958,0.99,4.948,4.948,4.948
		c1.319,0,2.556-0.083,3.628-0.33v9.152c-1.979,0.33-4.535,0.413-6.844,0.413c-7.257,0-13.441-1.567-13.441-10.143v-25.15h-7.091
		v-7.833h7.091v-12.781h11.709V351.772z"/>
	<path fill="#1565C0" d="M378.075,399.763c-2.556,6.845-6.679,9.648-14.678,9.648c-2.391,0-4.782-0.165-7.174-0.413v-9.647
		c2.227,0.248,4.535,0.495,6.845,0.412c3.051-0.329,4.535-2.721,4.535-5.359c0-0.907-0.165-1.814-0.495-2.639l-15.008-39.992h12.534
		l9.647,29.19h0.165l9.317-29.19h12.122L378.075,399.763z"/>
</g>
</svg>
